<svg xmlns="http://www.w3.org/2000/svg" xmlns:xlink="http://www.w3.org/1999/xlink" width="500" zoomAndPan="magnify" viewBox="0 0 375 374.999991" height="500" preserveAspectRatio="xMidYMid meet" version="1.0"><defs><clipPath id="fb9536ac65"><path d="M 62.945312 61.605469 L 318.75 61.605469 L 318.75 314.730469 L 62.945312 314.730469 Z M 62.945312 61.605469 " clip-rule="nonzero"/></clipPath><clipPath id="edb09a0bc1"><path d="M 80.195312 61.605469 L 301.5 61.605469 C 306.074219 61.605469 310.460938 63.425781 313.699219 66.660156 C 316.933594 69.894531 318.75 74.28125 318.75 78.855469 L 318.75 297.480469 C 318.75 302.058594 316.933594 306.445312 313.699219 309.679688 C 310.460938 312.914062 306.074219 314.730469 301.5 314.730469 L 80.195312 314.730469 C 75.621094 314.730469 71.234375 312.914062 68 309.679688 C 64.765625 306.445312 62.945312 302.058594 62.945312 297.480469 L 62.945312 78.855469 C 62.945312 74.28125 64.765625 69.894531 68 66.660156 C 71.234375 63.425781 75.621094 61.605469 80.195312 61.605469 Z M 80.195312 61.605469 " clip-rule="nonzero"/></clipPath><clipPath id="e21600cc50"><path d="M 37.5 37.5 L 337.5 37.5 L 337.5 337.5 L 37.5 337.5 Z M 37.5 37.5 " clip-rule="nonzero"/></clipPath></defs><g clip-path="url(#fb9536ac65)"><g clip-path="url(#edb09a0bc1)"><path fill="#ffffff" d="M 62.945312 61.605469 L 318.75 61.605469 L 318.75 314.730469 L 62.945312 314.730469 Z M 62.945312 61.605469 " fill-opacity="1" fill-rule="nonzero"/></g></g><g clip-path="url(#e21600cc50)"><path fill="#144e8b" d="M 337.5 291.878906 C 337.5 317.058594 317.09375 337.464844 291.917969 337.464844 L 83.097656 337.464844 C 57.921875 337.464844 37.511719 317.058594 37.511719 291.878906 L 37.511719 83.0625 C 37.511719 57.882812 57.921875 37.476562 83.097656 37.476562 L 291.914062 37.476562 C 317.09375 37.476562 337.5 57.882812 337.5 83.0625 Z M 337.5 291.878906 " fill-opacity="1" fill-rule="nonzero"/></g><path fill="#ffffff" d="M 236.285156 210.777344 L 241.136719 173.164062 L 203.886719 173.164062 L 203.886719 149.148438 C 203.886719 138.257812 206.925781 130.835938 222.539062 130.835938 L 242.441406 130.828125 L 242.441406 97.1875 C 239.003906 96.726562 227.191406 95.703125 213.421875 95.703125 C 184.703125 95.703125 165.054688 113.234375 165.054688 145.429688 L 165.054688 173.164062 L 132.570312 173.164062 L 132.570312 210.78125 L 165.054688 210.78125 L 165.054688 307.289062 L 203.886719 307.289062 L 203.886719 210.777344 Z M 236.285156 210.777344 " fill-opacity="1" fill-rule="nonzero"/></svg>