<svg xmlns="http://www.w3.org/2000/svg" xmlns:xlink="http://www.w3.org/1999/xlink" width="500" zoomAndPan="magnify" viewBox="0 0 375 374.999991" height="500" preserveAspectRatio="xMidYMid meet" version="1.0"><defs><clipPath id="8e93c2b410"><path d="M 37.5 37.5 L 337.5 37.5 L 337.5 337.5 L 37.5 337.5 Z M 37.5 37.5 " clip-rule="nonzero"/></clipPath><clipPath id="53ebac959b"><path d="M 58.222656 65.492188 L 316.148438 65.492188 L 316.148438 314.617188 L 58.222656 314.617188 Z M 58.222656 65.492188 " clip-rule="nonzero"/></clipPath><clipPath id="18eb955373"><path d="M 75.472656 65.492188 L 298.898438 65.492188 C 303.476562 65.492188 307.863281 67.308594 311.097656 70.542969 C 314.332031 73.777344 316.148438 78.164062 316.148438 82.742188 L 316.148438 297.367188 C 316.148438 301.941406 314.332031 306.328125 311.097656 309.5625 C 307.863281 312.800781 303.476562 314.617188 298.898438 314.617188 L 75.472656 314.617188 C 70.894531 314.617188 66.507812 312.800781 63.273438 309.5625 C 60.039062 306.328125 58.222656 301.941406 58.222656 297.367188 L 58.222656 82.742188 C 58.222656 78.164062 60.039062 73.777344 63.273438 70.542969 C 66.507812 67.308594 70.894531 65.492188 75.472656 65.492188 Z M 75.472656 65.492188 " clip-rule="nonzero"/></clipPath><clipPath id="3805f207dd"><path d="M 85.226562 69.558594 L 306 69.558594 L 306 288 L 85.226562 288 Z M 85.226562 69.558594 " clip-rule="nonzero"/></clipPath><clipPath id="1fb21dca31"><path d="M 95 207 L 277 207 L 277 297.558594 L 95 297.558594 Z M 95 207 " clip-rule="nonzero"/></clipPath></defs><g clip-path="url(#8e93c2b410)"><path fill="#144e8b" d="M 337.5 291.878906 C 337.5 317.058594 317.09375 337.464844 291.917969 337.464844 L 83.097656 337.464844 C 57.921875 337.464844 37.511719 317.058594 37.511719 291.878906 L 37.511719 83.0625 C 37.511719 57.882812 57.921875 37.476562 83.097656 37.476562 L 291.914062 37.476562 C 317.09375 37.476562 337.5 57.882812 337.5 83.0625 Z M 337.5 291.878906 " fill-opacity="1" fill-rule="nonzero"/></g><path fill="#ffffff" d="M 236.285156 210.777344 L 241.136719 173.164062 L 203.886719 173.164062 L 203.886719 149.148438 C 203.886719 138.257812 206.925781 130.835938 222.539062 130.835938 L 242.441406 130.828125 L 242.441406 97.1875 C 239.003906 96.726562 227.191406 95.703125 213.421875 95.703125 C 184.703125 95.703125 165.054688 113.234375 165.054688 145.429688 L 165.054688 173.164062 L 132.570312 173.164062 L 132.570312 210.78125 L 165.054688 210.78125 L 165.054688 307.289062 L 203.886719 307.289062 L 203.886719 210.777344 Z M 236.285156 210.777344 " fill-opacity="1" fill-rule="nonzero"/><g clip-path="url(#53ebac959b)"><g clip-path="url(#18eb955373)"><path fill="#144e8b" d="M 58.222656 65.492188 L 316.148438 65.492188 L 316.148438 314.617188 L 58.222656 314.617188 Z M 58.222656 65.492188 " fill-opacity="1" fill-rule="nonzero"/></g></g><g clip-path="url(#3805f207dd)"><path fill="#ffffff" d="M 283.316406 81.597656 C 274.835938 75.238281 265.441406 71.253906 254.898438 70 C 254.398438 69.9375 253.921875 69.714844 253.433594 69.570312 C 249.871094 69.570312 246.3125 69.570312 242.753906 69.570312 C 239.433594 70.242188 236.058594 70.714844 232.800781 71.621094 C 219.613281 75.277344 209.054688 82.773438 201.085938 93.875 C 199.972656 95.425781 198.84375 96.035156 196.910156 96.03125 C 162.0625 95.96875 127.214844 95.984375 92.367188 95.996094 C 91.335938 95.996094 90.289062 96.023438 89.273438 96.191406 C 86.828125 96.605469 85.515625 98.066406 85.289062 100.527344 C 85.230469 101.191406 85.261719 101.863281 85.261719 102.53125 C 85.261719 163.328125 85.261719 224.125 85.261719 284.925781 C 85.261719 285.707031 85.261719 286.488281 85.261719 287.582031 C 125.335938 247.503906 165.140625 207.703125 205.078125 167.761719 C 208.046875 171.488281 210.765625 174.902344 213.515625 178.355469 C 207.417969 184.363281 201.371094 190.324219 195.527344 196.082031 C 226.144531 226.695312 256.363281 256.917969 286.71875 287.273438 C 286.71875 286.480469 286.71875 285.632812 286.71875 284.78125 C 286.71875 248.378906 286.730469 211.972656 286.691406 175.566406 C 286.6875 173.917969 287.105469 172.625 288.140625 171.335938 C 293.59375 164.5625 298.289062 157.347656 301.675781 149.265625 C 311.5 125.816406 303.667969 96.859375 283.316406 81.597656 Z M 153.894531 179.207031 C 139.3125 185.738281 121.476562 180.367188 112.769531 166.933594 C 103.523438 152.65625 106.027344 134.761719 118.878906 123.273438 C 130.289062 113.074219 149.136719 112.480469 160.902344 122.144531 C 158.351562 125.457031 155.878906 128.667969 153.269531 132.054688 C 146.71875 127.480469 139.722656 126.53125 132.421875 129.605469 C 127.132812 131.828125 123.304688 135.75 121.359375 141.152344 C 117.238281 152.601562 123.054688 164.679688 134.199219 168.210938 C 145.164062 171.6875 157.1875 165.683594 160.15625 154.945312 C 156.933594 154.945312 153.804688 154.945312 150.671875 154.945312 C 147.492188 154.945312 144.316406 154.945312 140.941406 154.945312 C 140.941406 150.703125 140.941406 146.605469 140.941406 142.351562 C 151.871094 142.351562 162.800781 142.351562 173.726562 142.351562 C 175.773438 157.042969 169.511719 172.210938 153.894531 179.207031 Z M 285.007812 152.007812 C 280.015625 159.597656 274.21875 166.675781 268.613281 173.851562 C 261.824219 182.542969 255.605469 191.5625 252.925781 202.4375 C 251.65625 207.574219 251.078125 212.886719 250.132812 218.429688 C 248.871094 218.429688 247.269531 218.429688 245.683594 218.429688 C 245.199219 214.453125 244.925781 210.542969 244.214844 206.71875 C 242.292969 196.394531 237.605469 187.285156 231.308594 178.996094 C 225.664062 171.5625 219.691406 164.371094 214.128906 156.875 C 209.136719 150.152344 205.710938 142.675781 204.316406 134.296875 C 200.71875 112.644531 214.589844 90.785156 235.773438 84.917969 C 261.191406 77.878906 286.539062 93.453125 291.496094 119.277344 C 293.746094 131.007812 291.519531 142.117188 285.007812 152.007812 Z M 285.007812 152.007812 " fill-opacity="1" fill-rule="nonzero"/></g><g clip-path="url(#1fb21dca31)"><path fill="#ffffff" d="M 95.949219 297.246094 C 155.824219 297.246094 216.191406 297.246094 276.429688 297.246094 C 246.25 267.066406 216.074219 236.890625 186.191406 207.007812 C 156.101562 237.097656 125.898438 267.296875 95.949219 297.246094 Z M 95.949219 297.246094 " fill-opacity="1" fill-rule="nonzero"/></g><path fill="#ffffff" d="M 248.003906 107.101562 C 238.566406 107.164062 230.777344 114.972656 230.761719 124.386719 C 230.75 133.851562 238.480469 141.609375 247.964844 141.644531 C 257.429688 141.675781 265.179688 134.054688 265.355469 124.535156 C 265.53125 115.21875 257.386719 107.039062 248.003906 107.101562 Z M 248.003906 107.101562 " fill-opacity="1" fill-rule="nonzero"/></svg>