<svg xmlns="http://www.w3.org/2000/svg" xmlns:xlink="http://www.w3.org/1999/xlink" width="500" zoomAndPan="magnify" viewBox="0 0 375 374.999991" height="500" preserveAspectRatio="xMidYMid meet" version="1.0"><defs><clipPath id="037774b63c"><path d="M 62.945312 61.605469 L 318.75 61.605469 L 318.75 310.714844 L 62.945312 310.714844 Z M 62.945312 61.605469 " clip-rule="nonzero"/></clipPath><clipPath id="7fd66f0380"><path d="M 80.195312 61.605469 L 301.5 61.605469 C 306.074219 61.605469 310.460938 63.425781 313.699219 66.660156 C 316.933594 69.894531 318.75 74.28125 318.75 78.855469 L 318.75 293.464844 C 318.75 298.039062 316.933594 302.425781 313.699219 305.660156 C 310.460938 308.898438 306.074219 310.714844 301.5 310.714844 L 80.195312 310.714844 C 75.621094 310.714844 71.234375 308.898438 68 305.660156 C 64.765625 302.425781 62.945312 298.039062 62.945312 293.464844 L 62.945312 78.855469 C 62.945312 74.28125 64.765625 69.894531 68 66.660156 C 71.234375 63.425781 75.621094 61.605469 80.195312 61.605469 Z M 80.195312 61.605469 " clip-rule="nonzero"/></clipPath><clipPath id="b1252a4343"><path d="M 37.5 37.5 L 337.5 37.5 L 337.5 337.5 L 37.5 337.5 Z M 37.5 37.5 " clip-rule="nonzero"/></clipPath></defs><g clip-path="url(#037774b63c)"><g clip-path="url(#7fd66f0380)"><path fill="#ffffff" d="M 62.945312 61.605469 L 318.75 61.605469 L 318.75 310.714844 L 62.945312 310.714844 Z M 62.945312 61.605469 " fill-opacity="1" fill-rule="nonzero"/></g></g><g clip-path="url(#b1252a4343)"><path fill="#144e8b" d="M 312.4375 37.5 L 62.710938 37.5 C 48.90625 37.5 37.800781 48.753906 37.800781 62.414062 L 37.800781 312.585938 C 37.800781 326.394531 49.054688 337.5 62.710938 337.5 L 312.289062 337.5 C 326.09375 337.5 337.199219 326.246094 337.199219 312.585938 L 337.199219 62.414062 C 337.351562 48.753906 326.246094 37.5 312.4375 37.5 Z M 126.496094 284.972656 L 82.222656 284.972656 L 82.222656 152.007812 L 126.496094 152.007812 Z M 104.285156 135.949219 C 90.328125 135.949219 79.070312 124.695312 79.070312 110.738281 C 79.070312 96.78125 90.328125 85.523438 104.285156 85.523438 C 118.242188 85.523438 129.496094 96.78125 129.496094 110.738281 C 129.496094 124.695312 118.242188 135.949219 104.285156 135.949219 Z M 293.078125 284.972656 L 248.65625 284.972656 L 247.605469 206.035156 C 247.605469 206.035156 248.65625 185.023438 225.695312 185.175781 C 202.734375 185.324219 199.582031 206.035156 199.582031 206.035156 L 199.582031 284.972656 L 154.859375 284.972656 L 154.859375 152.007812 L 197.78125 152.007812 L 197.78125 170.316406 C 197.78125 170.316406 199.582031 164.3125 209.484375 157.261719 C 219.390625 150.207031 235.75 148.707031 242.800781 149.003906 C 249.855469 149.304688 259.460938 148.105469 275.519531 159.210938 C 292.777344 171.066406 293.226562 202.132812 293.226562 202.132812 Z M 293.078125 284.972656 " fill-opacity="1" fill-rule="nonzero"/></g></svg>