<svg xmlns="http://www.w3.org/2000/svg" xmlns:xlink="http://www.w3.org/1999/xlink" width="1500" zoomAndPan="magnify" viewBox="0 0 1125 374.999991" height="500" preserveAspectRatio="xMidYMid meet" version="1.0"><defs><g/><clipPath id="b334026ec0"><path d="M 21 82.453125 L 276.566406 82.453125 L 276.566406 305.953125 L 21 305.953125 Z M 21 82.453125 " clip-rule="nonzero"/></clipPath><clipPath id="18964df9ea"><path d="M 201.308594 18.808594 L 273 18.808594 L 273 147.808594 L 201.308594 147.808594 Z M 201.308594 18.808594 " clip-rule="nonzero"/></clipPath><clipPath id="cddbc7418a"><path d="M 265 18.808594 L 330.308594 18.808594 L 330.308594 147.808594 L 265 147.808594 Z M 265 18.808594 " clip-rule="nonzero"/></clipPath></defs><rect x="-112.5" width="1350" fill="#ffffff" y="-37.499999" height="449.999989" fill-opacity="1"/><rect x="-112.5" width="1350" fill="#ffffff" y="-37.499999" height="449.999989" fill-opacity="1"/><g clip-path="url(#b334026ec0)"><path fill="#03793d" d="M 77.597656 82.453125 L 274.65625 82.453125 C 275.792969 82.664062 276.363281 83.230469 276.363281 84.164062 L 276.363281 145.183594 C 276.363281 146.324219 275.792969 146.894531 274.65625 146.894531 L 22.808594 146.894531 L 21.097656 145.957031 C 26.597656 103.621094 45.429688 82.453125 77.597656 82.453125 Z M 22.808594 162.300781 L 223.285156 162.300781 C 246.324219 162.300781 262.871094 176.621094 272.9375 205.257812 C 275.21875 217.816406 276.359375 224.402344 276.359375 225.023438 L 274.648438 225.796875 L 74.179688 225.796875 C 51.035156 225.796875 34.488281 211.480469 24.527344 182.839844 C 22.246094 170.285156 21.105469 163.699219 21.105469 163.078125 Z M 22.808594 241.21875 L 274.65625 241.21875 L 276.363281 242.152344 C 270.863281 284.488281 252.03125 305.65625 219.863281 305.65625 L 22.808594 305.65625 C 21.667969 305.65625 21.097656 305.085938 21.097656 303.945312 L 21.097656 242.929688 C 21.304688 241.789062 21.875 241.21875 22.808594 241.21875 Z M 22.808594 241.21875 " fill-opacity="1" fill-rule="nonzero"/></g><g fill="#144e8b" fill-opacity="1"><g transform="translate(315.839611, 197.040185)"><g><path d="M 16.84375 -63.671875 C 21.644531 -63.671875 25.1875 -62.242188 27.46875 -59.390625 C 29.75 -56.546875 30.890625 -52.71875 30.890625 -47.90625 L 30.890625 -46.203125 L 24.234375 -46.203125 L 24.234375 -48.28125 C 24.234375 -51.15625 23.660156 -53.375 22.515625 -54.9375 C 21.367188 -56.5 19.535156 -57.28125 17.015625 -57.28125 C 14.492188 -57.28125 12.660156 -56.5 11.515625 -54.9375 C 10.378906 -53.375 9.8125 -51.179688 9.8125 -48.359375 C 9.8125 -46.015625 10.335938 -43.972656 11.390625 -42.234375 C 12.441406 -40.492188 13.75 -38.890625 15.3125 -37.421875 C 16.875 -35.953125 18.566406 -34.507812 20.390625 -33.09375 C 22.222656 -31.6875 23.921875 -30.140625 25.484375 -28.453125 C 27.046875 -26.773438 28.351562 -24.867188 29.40625 -22.734375 C 30.457031 -20.609375 30.984375 -18.070312 30.984375 -15.125 C 30.984375 -10.320312 29.828125 -6.492188 27.515625 -3.640625 C 25.203125 -0.796875 21.613281 0.625 16.75 0.625 C 11.882812 0.625 8.3125 -0.796875 6.03125 -3.640625 C 3.75 -6.492188 2.609375 -10.320312 2.609375 -15.125 L 2.609375 -18.734375 L 9.1875 -18.734375 L 9.1875 -14.765625 C 9.1875 -11.890625 9.785156 -9.671875 10.984375 -8.109375 C 12.179688 -6.546875 14.046875 -5.765625 16.578125 -5.765625 C 19.097656 -5.765625 20.957031 -6.546875 22.15625 -8.109375 C 23.351562 -9.671875 23.953125 -11.890625 23.953125 -14.765625 C 23.953125 -17.109375 23.425781 -19.132812 22.375 -20.84375 C 21.320312 -22.5625 20.015625 -24.15625 18.453125 -25.625 C 16.898438 -27.09375 15.222656 -28.53125 13.421875 -29.9375 C 11.617188 -31.351562 9.9375 -32.898438 8.375 -34.578125 C 6.8125 -36.265625 5.503906 -38.171875 4.453125 -40.296875 C 3.398438 -42.429688 2.875 -44.96875 2.875 -47.90625 C 2.875 -52.769531 4.015625 -56.613281 6.296875 -59.4375 C 8.585938 -62.257812 12.101562 -63.671875 16.84375 -63.671875 Z M 16.84375 -63.671875 "/></g></g></g><g fill="#144e8b" fill-opacity="1"><g transform="translate(356.999235, 197.040185)"><g><path d="M 12.78125 0 L 12.78125 -56.65625 L 1.171875 -56.65625 L 1.171875 -63.046875 L 31.4375 -63.046875 L 31.4375 -56.65625 L 19.8125 -56.65625 L 19.8125 0 Z M 12.78125 0 "/></g></g></g><g fill="#144e8b" fill-opacity="1"><g transform="translate(397.348287, 197.040185)"><g><path d="M 10.71875 -12.703125 L 8.28125 0 L 1.796875 0 L 13.875 -63.046875 L 24.046875 -63.046875 L 36.109375 0 L 29.09375 0 L 26.65625 -12.703125 Z M 11.625 -18.734375 L 25.671875 -18.734375 L 18.546875 -55.125 Z M 11.625 -18.734375 "/></g></g></g><g fill="#144e8b" fill-opacity="1"><g transform="translate(443.011112, 197.040185)"><g><path d="M 12.78125 0 L 12.78125 -56.65625 L 1.171875 -56.65625 L 1.171875 -63.046875 L 31.4375 -63.046875 L 31.4375 -56.65625 L 19.8125 -56.65625 L 19.8125 0 Z M 12.78125 0 "/></g></g></g><g fill="#144e8b" fill-opacity="1"><g transform="translate(483.361747, 197.040185)"><g/></g></g><g fill="#144e8b" fill-opacity="1"><g transform="translate(504.977468, 197.040185)"><g/></g></g><g fill="#144e8b" fill-opacity="1"><g transform="translate(526.593188, 197.040185)"><g/></g></g><g fill="#144e8b" fill-opacity="1"><g transform="translate(548.208905, 197.040185)"><g/></g></g><g fill="#144e8b" fill-opacity="1"><g transform="translate(569.82463, 197.040185)"><g/></g></g><g fill="#144e8b" fill-opacity="1"><g transform="translate(591.440354, 197.040185)"><g/></g></g><g fill="#144e8b" fill-opacity="1"><g transform="translate(613.056078, 197.040185)"><g/></g></g><g fill="#144e8b" fill-opacity="1"><g transform="translate(634.671802, 197.040185)"><g/></g></g><g fill="#144e8b" fill-opacity="1"><g transform="translate(656.287527, 197.040185)"><g/></g></g><g fill="#144e8b" fill-opacity="1"><g transform="translate(677.903251, 197.040185)"><g/></g></g><g fill="#144e8b" fill-opacity="1"><g transform="translate(699.518975, 197.040185)"><g/></g></g><g fill="#144e8b" fill-opacity="1"><g transform="translate(506.171116, 197.040185)"><g><path d="M 16.84375 -63.671875 C 21.644531 -63.671875 25.1875 -62.242188 27.46875 -59.390625 C 29.75 -56.546875 30.890625 -52.71875 30.890625 -47.90625 L 30.890625 -46.203125 L 24.234375 -46.203125 L 24.234375 -48.28125 C 24.234375 -51.15625 23.660156 -53.375 22.515625 -54.9375 C 21.367188 -56.5 19.535156 -57.28125 17.015625 -57.28125 C 14.492188 -57.28125 12.660156 -56.5 11.515625 -54.9375 C 10.378906 -53.375 9.8125 -51.179688 9.8125 -48.359375 C 9.8125 -46.015625 10.335938 -43.972656 11.390625 -42.234375 C 12.441406 -40.492188 13.75 -38.890625 15.3125 -37.421875 C 16.875 -35.953125 18.566406 -34.507812 20.390625 -33.09375 C 22.222656 -31.6875 23.921875 -30.140625 25.484375 -28.453125 C 27.046875 -26.773438 28.351562 -24.867188 29.40625 -22.734375 C 30.457031 -20.609375 30.984375 -18.070312 30.984375 -15.125 C 30.984375 -10.320312 29.828125 -6.492188 27.515625 -3.640625 C 25.203125 -0.796875 21.613281 0.625 16.75 0.625 C 11.882812 0.625 8.3125 -0.796875 6.03125 -3.640625 C 3.75 -6.492188 2.609375 -10.320312 2.609375 -15.125 L 2.609375 -18.734375 L 9.1875 -18.734375 L 9.1875 -14.765625 C 9.1875 -11.890625 9.785156 -9.671875 10.984375 -8.109375 C 12.179688 -6.546875 14.046875 -5.765625 16.578125 -5.765625 C 19.097656 -5.765625 20.957031 -6.546875 22.15625 -8.109375 C 23.351562 -9.671875 23.953125 -11.890625 23.953125 -14.765625 C 23.953125 -17.109375 23.425781 -19.132812 22.375 -20.84375 C 21.320312 -22.5625 20.015625 -24.15625 18.453125 -25.625 C 16.898438 -27.09375 15.222656 -28.53125 13.421875 -29.9375 C 11.617188 -31.351562 9.9375 -32.898438 8.375 -34.578125 C 6.8125 -36.265625 5.503906 -38.171875 4.453125 -40.296875 C 3.398438 -42.429688 2.875 -44.96875 2.875 -47.90625 C 2.875 -52.769531 4.015625 -56.613281 6.296875 -59.4375 C 8.585938 -62.257812 12.101562 -63.671875 16.84375 -63.671875 Z M 16.84375 -63.671875 "/></g></g></g><g fill="#144e8b" fill-opacity="1"><g transform="translate(547.33074, 197.040185)"><g><path d="M 10.265625 -14.859375 C 10.265625 -11.972656 10.847656 -9.734375 12.015625 -8.140625 C 13.191406 -6.554688 15.070312 -5.765625 17.65625 -5.765625 C 20.175781 -5.765625 22.019531 -6.554688 23.1875 -8.140625 C 24.363281 -9.734375 24.953125 -11.972656 24.953125 -14.859375 L 24.953125 -63.046875 L 31.515625 -63.046875 L 31.515625 -15.21875 C 31.515625 -10.414062 30.375 -6.554688 28.09375 -3.640625 C 25.8125 -0.734375 22.238281 0.71875 17.375 0.71875 C 12.570312 0.71875 9.03125 -0.734375 6.75 -3.640625 C 4.46875 -6.554688 3.328125 -10.414062 3.328125 -15.21875 L 3.328125 -63.046875 L 10.265625 -63.046875 Z M 10.265625 -14.859375 "/></g></g></g><g fill="#144e8b" fill-opacity="1"><g transform="translate(589.841319, 197.040185)"><g><path d="M 17.65625 -63.046875 C 22.632812 -63.046875 26.21875 -61.8125 28.40625 -59.34375 C 30.601562 -56.882812 31.703125 -53.316406 31.703125 -48.640625 L 31.703125 -43.5 C 31.703125 -40.019531 31.070312 -37.195312 29.8125 -35.03125 C 28.550781 -32.875 26.566406 -31.375 23.859375 -30.53125 C 26.742188 -29.6875 28.785156 -28.140625 29.984375 -25.890625 C 31.191406 -23.640625 31.796875 -20.800781 31.796875 -17.375 L 31.796875 -7.5625 C 31.796875 -6.1875 31.851562 -4.851562 31.96875 -3.5625 C 32.09375 -2.269531 32.453125 -1.082031 33.046875 0 L 25.9375 0 C 25.519531 -0.894531 25.21875 -1.867188 25.03125 -2.921875 C 24.851562 -3.972656 24.765625 -5.550781 24.765625 -7.65625 L 24.765625 -17.5625 C 24.765625 -21.101562 23.96875 -23.546875 22.375 -24.890625 C 20.789062 -26.242188 18.523438 -26.921875 15.578125 -26.921875 L 10.625 -26.921875 L 10.625 0 L 3.609375 0 L 3.609375 -63.046875 Z M 15.84375 -33.328125 C 18.664062 -33.328125 20.859375 -33.910156 22.421875 -35.078125 C 23.984375 -36.242188 24.765625 -38.539062 24.765625 -41.96875 L 24.765625 -48 C 24.765625 -50.882812 24.207031 -53.046875 23.09375 -54.484375 C 21.988281 -55.929688 20.113281 -56.65625 17.46875 -56.65625 L 10.625 -56.65625 L 10.625 -33.328125 Z M 15.84375 -33.328125 "/></g></g></g><g fill="#144e8b" fill-opacity="1"><g transform="translate(632.982356, 197.040185)"><g><path d="M 17.203125 -63.671875 C 22.066406 -63.671875 25.65625 -62.226562 27.96875 -59.34375 C 30.28125 -56.46875 31.4375 -52.628906 31.4375 -47.828125 L 31.4375 -42.421875 L 24.765625 -42.421875 L 24.765625 -48.1875 C 24.765625 -51.0625 24.175781 -53.296875 23 -54.890625 C 21.832031 -56.484375 19.957031 -57.28125 17.375 -57.28125 C 14.851562 -57.28125 12.992188 -56.484375 11.796875 -54.890625 C 10.597656 -53.296875 10 -51.0625 10 -48.1875 L 10 -14.859375 C 10 -11.972656 10.597656 -9.734375 11.796875 -8.140625 C 12.992188 -6.554688 14.851562 -5.765625 17.375 -5.765625 C 19.957031 -5.765625 21.832031 -6.554688 23 -8.140625 C 24.175781 -9.734375 24.765625 -11.972656 24.765625 -14.859375 L 24.765625 -27.46875 L 18.28125 -27.46875 L 18.28125 -33.78125 L 31.4375 -33.78125 L 31.4375 -15.21875 C 31.4375 -10.414062 30.28125 -6.570312 27.96875 -3.6875 C 25.65625 -0.8125 22.066406 0.625 17.203125 0.625 C 12.398438 0.625 8.84375 -0.8125 6.53125 -3.6875 C 4.21875 -6.570312 3.0625 -10.414062 3.0625 -15.21875 L 3.0625 -47.828125 C 3.0625 -50.222656 3.34375 -52.394531 3.90625 -54.34375 C 4.476562 -56.300781 5.347656 -57.96875 6.515625 -59.34375 C 7.691406 -60.726562 9.164062 -61.796875 10.9375 -62.546875 C 12.707031 -63.296875 14.796875 -63.671875 17.203125 -63.671875 Z M 17.203125 -63.671875 "/></g></g></g><g fill="#144e8b" fill-opacity="1"><g transform="translate(675.132691, 197.040185)"><g><path d="M 10.625 -63.046875 L 10.625 0 L 3.609375 0 L 3.609375 -63.046875 Z M 10.625 -63.046875 "/></g></g></g><g fill="#144e8b" fill-opacity="1"><g transform="translate(697.018615, 197.040185)"><g><path d="M 17.203125 -63.671875 C 22.066406 -63.671875 25.65625 -62.226562 27.96875 -59.34375 C 30.28125 -56.46875 31.4375 -52.628906 31.4375 -47.828125 L 31.4375 -42.15625 L 24.765625 -42.15625 L 24.765625 -48.1875 C 24.765625 -51.0625 24.175781 -53.296875 23 -54.890625 C 21.832031 -56.484375 19.957031 -57.28125 17.375 -57.28125 C 14.851562 -57.28125 12.992188 -56.484375 11.796875 -54.890625 C 10.597656 -53.296875 10 -51.0625 10 -48.1875 L 10 -14.859375 C 10 -11.972656 10.597656 -9.734375 11.796875 -8.140625 C 12.992188 -6.554688 14.851562 -5.765625 17.375 -5.765625 C 19.957031 -5.765625 21.832031 -6.554688 23 -8.140625 C 24.175781 -9.734375 24.765625 -11.972656 24.765625 -14.859375 L 24.765625 -23.0625 L 31.4375 -23.0625 L 31.4375 -15.21875 C 31.4375 -10.414062 30.28125 -6.570312 27.96875 -3.6875 C 25.65625 -0.8125 22.066406 0.625 17.203125 0.625 C 12.398438 0.625 8.84375 -0.8125 6.53125 -3.6875 C 4.21875 -6.570312 3.0625 -10.414062 3.0625 -15.21875 L 3.0625 -47.828125 C 3.0625 -50.222656 3.34375 -52.394531 3.90625 -54.34375 C 4.476562 -56.300781 5.347656 -57.96875 6.515625 -59.34375 C 7.691406 -60.726562 9.164062 -61.796875 10.9375 -62.546875 C 12.707031 -63.296875 14.796875 -63.671875 17.203125 -63.671875 Z M 17.203125 -63.671875 "/></g></g></g><g fill="#144e8b" fill-opacity="1"><g transform="translate(738.898737, 197.040185)"><g><path d="M 10.71875 -12.703125 L 8.28125 0 L 1.796875 0 L 13.875 -63.046875 L 24.046875 -63.046875 L 36.109375 0 L 29.09375 0 L 26.65625 -12.703125 Z M 11.625 -18.734375 L 25.671875 -18.734375 L 18.546875 -55.125 Z M 11.625 -18.734375 "/></g></g></g><g fill="#144e8b" fill-opacity="1"><g transform="translate(784.561568, 197.040185)"><g><path d="M 3.609375 0 L 3.609375 -63.046875 L 10.625 -63.046875 L 10.625 -6.390625 L 28.640625 -6.390625 L 28.640625 0 Z M 3.609375 0 "/></g></g></g><g fill="#144e8b" fill-opacity="1"><g transform="translate(822.580001, 197.040185)"><g/></g></g><g fill="#144e8b" fill-opacity="1"><g transform="translate(844.195722, 197.040185)"><g/></g></g><g fill="#144e8b" fill-opacity="1"><g transform="translate(865.811442, 197.040185)"><g/></g></g><g fill="#144e8b" fill-opacity="1"><g transform="translate(887.427159, 197.040185)"><g/></g></g><g fill="#144e8b" fill-opacity="1"><g transform="translate(909.042884, 197.040185)"><g/></g></g><g fill="#144e8b" fill-opacity="1"><g transform="translate(930.658608, 197.040185)"><g/></g></g><g fill="#144e8b" fill-opacity="1"><g transform="translate(952.274332, 197.040185)"><g/></g></g><g fill="#144e8b" fill-opacity="1"><g transform="translate(973.890056, 197.040185)"><g/></g></g><g fill="#144e8b" fill-opacity="1"><g transform="translate(995.505781, 197.040185)"><g/></g></g><g fill="#144e8b" fill-opacity="1"><g transform="translate(1017.121505, 197.040185)"><g/></g></g><g fill="#144e8b" fill-opacity="1"><g transform="translate(1038.737229, 197.040185)"><g/></g></g><g fill="#144e8b" fill-opacity="1"><g transform="translate(839.430006, 197.040183)"><g><path d="M 16.84375 -63.671875 C 21.644531 -63.671875 25.1875 -62.242188 27.46875 -59.390625 C 29.75 -56.546875 30.890625 -52.71875 30.890625 -47.90625 L 30.890625 -46.203125 L 24.234375 -46.203125 L 24.234375 -48.28125 C 24.234375 -51.15625 23.660156 -53.375 22.515625 -54.9375 C 21.367188 -56.5 19.535156 -57.28125 17.015625 -57.28125 C 14.492188 -57.28125 12.660156 -56.5 11.515625 -54.9375 C 10.378906 -53.375 9.8125 -51.179688 9.8125 -48.359375 C 9.8125 -46.015625 10.335938 -43.972656 11.390625 -42.234375 C 12.441406 -40.492188 13.75 -38.890625 15.3125 -37.421875 C 16.875 -35.953125 18.566406 -34.507812 20.390625 -33.09375 C 22.222656 -31.6875 23.921875 -30.140625 25.484375 -28.453125 C 27.046875 -26.773438 28.351562 -24.867188 29.40625 -22.734375 C 30.457031 -20.609375 30.984375 -18.070312 30.984375 -15.125 C 30.984375 -10.320312 29.828125 -6.492188 27.515625 -3.640625 C 25.203125 -0.796875 21.613281 0.625 16.75 0.625 C 11.882812 0.625 8.3125 -0.796875 6.03125 -3.640625 C 3.75 -6.492188 2.609375 -10.320312 2.609375 -15.125 L 2.609375 -18.734375 L 9.1875 -18.734375 L 9.1875 -14.765625 C 9.1875 -11.890625 9.785156 -9.671875 10.984375 -8.109375 C 12.179688 -6.546875 14.046875 -5.765625 16.578125 -5.765625 C 19.097656 -5.765625 20.957031 -6.546875 22.15625 -8.109375 C 23.351562 -9.671875 23.953125 -11.890625 23.953125 -14.765625 C 23.953125 -17.109375 23.425781 -19.132812 22.375 -20.84375 C 21.320312 -22.5625 20.015625 -24.15625 18.453125 -25.625 C 16.898438 -27.09375 15.222656 -28.53125 13.421875 -29.9375 C 11.617188 -31.351562 9.9375 -32.898438 8.375 -34.578125 C 6.8125 -36.265625 5.503906 -38.171875 4.453125 -40.296875 C 3.398438 -42.429688 2.875 -44.96875 2.875 -47.90625 C 2.875 -52.769531 4.015625 -56.613281 6.296875 -59.4375 C 8.585938 -62.257812 12.101562 -63.671875 16.84375 -63.671875 Z M 16.84375 -63.671875 "/></g></g></g><g fill="#144e8b" fill-opacity="1"><g transform="translate(880.58963, 197.040183)"><g><path d="M 10.265625 -14.859375 C 10.265625 -11.972656 10.847656 -9.734375 12.015625 -8.140625 C 13.191406 -6.554688 15.070312 -5.765625 17.65625 -5.765625 C 20.175781 -5.765625 22.019531 -6.554688 23.1875 -8.140625 C 24.363281 -9.734375 24.953125 -11.972656 24.953125 -14.859375 L 24.953125 -63.046875 L 31.515625 -63.046875 L 31.515625 -15.21875 C 31.515625 -10.414062 30.375 -6.554688 28.09375 -3.640625 C 25.8125 -0.734375 22.238281 0.71875 17.375 0.71875 C 12.570312 0.71875 9.03125 -0.734375 6.75 -3.640625 C 4.46875 -6.554688 3.328125 -10.414062 3.328125 -15.21875 L 3.328125 -63.046875 L 10.265625 -63.046875 Z M 10.265625 -14.859375 "/></g></g></g><g fill="#144e8b" fill-opacity="1"><g transform="translate(923.100209, 197.040183)"><g><path d="M 17.375 -63.046875 C 22.363281 -63.046875 25.96875 -61.675781 28.1875 -58.9375 C 30.40625 -56.207031 31.515625 -52.441406 31.515625 -47.640625 L 31.515625 -40.078125 C 31.515625 -35.035156 30.328125 -31.238281 27.953125 -28.6875 C 25.585938 -26.132812 21.882812 -24.859375 16.84375 -24.859375 L 10.625 -24.859375 L 10.625 0 L 3.609375 0 L 3.609375 -63.046875 Z M 16.84375 -31.15625 C 19.476562 -31.15625 21.425781 -31.800781 22.6875 -33.09375 C 23.957031 -34.382812 24.59375 -36.5625 24.59375 -39.625 L 24.59375 -48 C 24.59375 -50.882812 24.035156 -53.046875 22.921875 -54.484375 C 21.804688 -55.929688 19.957031 -56.65625 17.375 -56.65625 L 10.625 -56.65625 L 10.625 -31.15625 Z M 16.84375 -31.15625 "/></g></g></g><g fill="#144e8b" fill-opacity="1"><g transform="translate(964.439953, 197.040183)"><g><path d="M 17.375 -63.046875 C 22.363281 -63.046875 25.96875 -61.675781 28.1875 -58.9375 C 30.40625 -56.207031 31.515625 -52.441406 31.515625 -47.640625 L 31.515625 -40.078125 C 31.515625 -35.035156 30.328125 -31.238281 27.953125 -28.6875 C 25.585938 -26.132812 21.882812 -24.859375 16.84375 -24.859375 L 10.625 -24.859375 L 10.625 0 L 3.609375 0 L 3.609375 -63.046875 Z M 16.84375 -31.15625 C 19.476562 -31.15625 21.425781 -31.800781 22.6875 -33.09375 C 23.957031 -34.382812 24.59375 -36.5625 24.59375 -39.625 L 24.59375 -48 C 24.59375 -50.882812 24.035156 -53.046875 22.921875 -54.484375 C 21.804688 -55.929688 19.957031 -56.65625 17.375 -56.65625 L 10.625 -56.65625 L 10.625 -31.15625 Z M 16.84375 -31.15625 "/></g></g></g><g fill="#144e8b" fill-opacity="1"><g transform="translate(1005.779704, 197.040183)"><g><path d="M 3.609375 0 L 3.609375 -63.046875 L 10.625 -63.046875 L 10.625 -6.390625 L 28.640625 -6.390625 L 28.640625 0 Z M 3.609375 0 "/></g></g></g><g fill="#144e8b" fill-opacity="1"><g transform="translate(1043.787094, 197.040183)"><g><path d="M 14.765625 -22.609375 L 1.4375 -63.046875 L 8.734375 -63.046875 L 18.546875 -32.0625 L 28.453125 -63.046875 L 35.125 -63.046875 L 21.703125 -22.609375 L 21.703125 0 L 14.765625 0 Z M 14.765625 -22.609375 "/></g></g></g><g fill="#144e8b" fill-opacity="1"><g transform="translate(1088.013947, 197.040183)"><g/></g></g><g fill="#144e8b" fill-opacity="1"><g transform="translate(1109.629668, 197.040183)"><g/></g></g><g fill="#788b9b" fill-opacity="1"><g transform="translate(354.603242, 254.598017)"><g><path d="M 4.359375 -29.0625 L 16.609375 -29.0625 C 19.679688 -29.0625 22.40625 -28.453125 24.78125 -27.234375 C 27.164062 -26.015625 29.015625 -24.304688 30.328125 -22.109375 C 31.640625 -19.910156 32.296875 -17.382812 32.296875 -14.53125 C 32.296875 -11.675781 31.640625 -9.148438 30.328125 -6.953125 C 29.015625 -4.753906 27.164062 -3.046875 24.78125 -1.828125 C 22.40625 -0.609375 19.679688 0 16.609375 0 L 4.359375 0 Z M 16.359375 -3.609375 C 18.710938 -3.609375 20.78125 -4.066406 22.5625 -4.984375 C 24.34375 -5.898438 25.71875 -7.179688 26.6875 -8.828125 C 27.65625 -10.472656 28.140625 -12.375 28.140625 -14.53125 C 28.140625 -16.6875 27.65625 -18.585938 26.6875 -20.234375 C 25.71875 -21.878906 24.34375 -23.160156 22.5625 -24.078125 C 20.78125 -24.992188 18.710938 -25.453125 16.359375 -25.453125 L 8.515625 -25.453125 L 8.515625 -3.609375 Z M 16.359375 -3.609375 "/></g></g></g><g fill="#788b9b" fill-opacity="1"><g transform="translate(389.30952, 254.598017)"><g><path d="M 4.359375 -29.0625 L 8.515625 -29.0625 L 8.515625 0 L 4.359375 0 Z M 4.359375 -29.0625 "/></g></g></g><g fill="#788b9b" fill-opacity="1"><g transform="translate(402.594275, 254.598017)"><g><path d="M 12.828125 0.328125 C 10.640625 0.328125 8.53125 -0.0078125 6.5 -0.6875 C 4.46875 -1.363281 2.867188 -2.242188 1.703125 -3.328125 L 3.234375 -6.5625 C 4.347656 -5.5625 5.769531 -4.75 7.5 -4.125 C 9.226562 -3.507812 11.003906 -3.203125 12.828125 -3.203125 C 15.234375 -3.203125 17.03125 -3.609375 18.21875 -4.421875 C 19.414062 -5.234375 20.015625 -6.320312 20.015625 -7.6875 C 20.015625 -8.675781 19.6875 -9.484375 19.03125 -10.109375 C 18.382812 -10.734375 17.582031 -11.210938 16.625 -11.546875 C 15.664062 -11.878906 14.316406 -12.25 12.578125 -12.65625 C 10.390625 -13.1875 8.625 -13.710938 7.28125 -14.234375 C 5.9375 -14.765625 4.785156 -15.578125 3.828125 -16.671875 C 2.878906 -17.765625 2.40625 -19.238281 2.40625 -21.09375 C 2.40625 -22.644531 2.8125 -24.039062 3.625 -25.28125 C 4.445312 -26.53125 5.6875 -27.523438 7.34375 -28.265625 C 9.007812 -29.015625 11.070312 -29.390625 13.53125 -29.390625 C 15.25 -29.390625 16.9375 -29.164062 18.59375 -28.71875 C 20.257812 -28.28125 21.6875 -27.644531 22.875 -26.8125 L 21.5 -23.5 C 20.28125 -24.269531 18.976562 -24.851562 17.59375 -25.25 C 16.21875 -25.65625 14.863281 -25.859375 13.53125 -25.859375 C 11.175781 -25.859375 9.410156 -25.429688 8.234375 -24.578125 C 7.054688 -23.722656 6.46875 -22.613281 6.46875 -21.25 C 6.46875 -20.257812 6.800781 -19.453125 7.46875 -18.828125 C 8.132812 -18.203125 8.957031 -17.71875 9.9375 -17.375 C 10.925781 -17.03125 12.265625 -16.664062 13.953125 -16.28125 C 16.140625 -15.75 17.894531 -15.21875 19.21875 -14.6875 C 20.550781 -14.164062 21.691406 -13.363281 22.640625 -12.28125 C 23.597656 -11.207031 24.078125 -9.753906 24.078125 -7.921875 C 24.078125 -6.398438 23.660156 -5.007812 22.828125 -3.75 C 22.003906 -2.5 20.742188 -1.503906 19.046875 -0.765625 C 17.359375 -0.0351562 15.285156 0.328125 12.828125 0.328125 Z M 12.828125 0.328125 "/></g></g></g><g fill="#788b9b" fill-opacity="1"><g transform="translate(428.790063, 254.598017)"><g><path d="M 17.359375 0.328125 C 14.453125 0.328125 11.828125 -0.3125 9.484375 -1.59375 C 7.148438 -2.882812 5.316406 -4.65625 3.984375 -6.90625 C 2.660156 -9.164062 2 -11.707031 2 -14.53125 C 2 -17.351562 2.660156 -19.890625 3.984375 -22.140625 C 5.316406 -24.398438 7.15625 -26.171875 9.5 -27.453125 C 11.851562 -28.742188 14.484375 -29.390625 17.390625 -29.390625 C 19.660156 -29.390625 21.738281 -29.007812 23.625 -28.25 C 25.507812 -27.488281 27.113281 -26.363281 28.4375 -24.875 L 25.734375 -22.25 C 23.546875 -24.550781 20.820312 -25.703125 17.5625 -25.703125 C 15.40625 -25.703125 13.453125 -25.21875 11.703125 -24.25 C 9.960938 -23.28125 8.597656 -21.941406 7.609375 -20.234375 C 6.628906 -18.535156 6.140625 -16.632812 6.140625 -14.53125 C 6.140625 -12.425781 6.628906 -10.519531 7.609375 -8.8125 C 8.597656 -7.113281 9.960938 -5.78125 11.703125 -4.8125 C 13.453125 -3.84375 15.40625 -3.359375 17.5625 -3.359375 C 20.800781 -3.359375 23.523438 -4.519531 25.734375 -6.84375 L 28.4375 -4.234375 C 27.113281 -2.742188 25.5 -1.609375 23.59375 -0.828125 C 21.695312 -0.0546875 19.617188 0.328125 17.359375 0.328125 Z M 17.359375 0.328125 "/></g></g></g><g fill="#788b9b" fill-opacity="1"><g transform="translate(459.220364, 254.598017)"><g><path d="M 17.484375 0.328125 C 14.546875 0.328125 11.898438 -0.3125 9.546875 -1.59375 C 7.191406 -2.882812 5.34375 -4.664062 4 -6.9375 C 2.664062 -9.207031 2 -11.738281 2 -14.53125 C 2 -17.320312 2.664062 -19.851562 4 -22.125 C 5.34375 -24.394531 7.191406 -26.171875 9.546875 -27.453125 C 11.898438 -28.742188 14.546875 -29.390625 17.484375 -29.390625 C 20.390625 -29.390625 23.015625 -28.742188 25.359375 -27.453125 C 27.710938 -26.171875 29.550781 -24.398438 30.875 -22.140625 C 32.207031 -19.890625 32.875 -17.351562 32.875 -14.53125 C 32.875 -11.707031 32.207031 -9.164062 30.875 -6.90625 C 29.550781 -4.65625 27.710938 -2.882812 25.359375 -1.59375 C 23.015625 -0.3125 20.390625 0.328125 17.484375 0.328125 Z M 17.484375 -3.359375 C 19.609375 -3.359375 21.519531 -3.84375 23.21875 -4.8125 C 24.925781 -5.78125 26.269531 -7.113281 27.25 -8.8125 C 28.238281 -10.519531 28.734375 -12.425781 28.734375 -14.53125 C 28.734375 -16.632812 28.238281 -18.535156 27.25 -20.234375 C 26.269531 -21.941406 24.925781 -23.28125 23.21875 -24.25 C 21.519531 -25.21875 19.609375 -25.703125 17.484375 -25.703125 C 15.347656 -25.703125 13.414062 -25.21875 11.6875 -24.25 C 9.957031 -23.28125 8.597656 -21.941406 7.609375 -20.234375 C 6.628906 -18.535156 6.140625 -16.632812 6.140625 -14.53125 C 6.140625 -12.425781 6.628906 -10.519531 7.609375 -8.8125 C 8.597656 -7.113281 9.957031 -5.78125 11.6875 -4.8125 C 13.414062 -3.84375 15.347656 -3.359375 17.484375 -3.359375 Z M 17.484375 -3.359375 "/></g></g></g><g fill="#788b9b" fill-opacity="1"><g transform="translate(494.507854, 254.598017)"><g><path d="M 16.40625 0.328125 C 12.53125 0.328125 9.507812 -0.773438 7.34375 -2.984375 C 5.1875 -5.203125 4.109375 -8.382812 4.109375 -12.53125 L 4.109375 -29.0625 L 8.265625 -29.0625 L 8.265625 -12.703125 C 8.265625 -6.472656 10.988281 -3.359375 16.4375 -3.359375 C 19.09375 -3.359375 21.125 -4.125 22.53125 -5.65625 C 23.945312 -7.195312 24.65625 -9.546875 24.65625 -12.703125 L 24.65625 -29.0625 L 28.6875 -29.0625 L 28.6875 -12.53125 C 28.6875 -8.351562 27.601562 -5.164062 25.4375 -2.96875 C 23.28125 -0.769531 20.269531 0.328125 16.40625 0.328125 Z M 16.40625 0.328125 "/></g></g></g><g fill="#788b9b" fill-opacity="1"><g transform="translate(527.761146, 254.598017)"><g><path d="M 29.34375 -29.0625 L 29.34375 0 L 25.953125 0 L 8.515625 -21.671875 L 8.515625 0 L 4.359375 0 L 4.359375 -29.0625 L 7.765625 -29.0625 L 25.203125 -7.390625 L 25.203125 -29.0625 Z M 29.34375 -29.0625 "/></g></g></g><g fill="#788b9b" fill-opacity="1"><g transform="translate(561.886241, 254.598017)"><g><path d="M 10.125 -25.453125 L 0.171875 -25.453125 L 0.171875 -29.0625 L 24.203125 -29.0625 L 24.203125 -25.453125 L 14.234375 -25.453125 L 14.234375 0 L 10.125 0 Z M 10.125 -25.453125 "/></g></g></g><g fill="#788b9b" fill-opacity="1"><g transform="translate(586.670533, 254.598017)"><g/></g></g><g fill="#788b9b" fill-opacity="1"><g transform="translate(598.253203, 254.598017)"><g><path d="M 12.828125 0.328125 C 10.640625 0.328125 8.53125 -0.0078125 6.5 -0.6875 C 4.46875 -1.363281 2.867188 -2.242188 1.703125 -3.328125 L 3.234375 -6.5625 C 4.347656 -5.5625 5.769531 -4.75 7.5 -4.125 C 9.226562 -3.507812 11.003906 -3.203125 12.828125 -3.203125 C 15.234375 -3.203125 17.03125 -3.609375 18.21875 -4.421875 C 19.414062 -5.234375 20.015625 -6.320312 20.015625 -7.6875 C 20.015625 -8.675781 19.6875 -9.484375 19.03125 -10.109375 C 18.382812 -10.734375 17.582031 -11.210938 16.625 -11.546875 C 15.664062 -11.878906 14.316406 -12.25 12.578125 -12.65625 C 10.390625 -13.1875 8.625 -13.710938 7.28125 -14.234375 C 5.9375 -14.765625 4.785156 -15.578125 3.828125 -16.671875 C 2.878906 -17.765625 2.40625 -19.238281 2.40625 -21.09375 C 2.40625 -22.644531 2.8125 -24.039062 3.625 -25.28125 C 4.445312 -26.53125 5.6875 -27.523438 7.34375 -28.265625 C 9.007812 -29.015625 11.070312 -29.390625 13.53125 -29.390625 C 15.25 -29.390625 16.9375 -29.164062 18.59375 -28.71875 C 20.257812 -28.28125 21.6875 -27.644531 22.875 -26.8125 L 21.5 -23.5 C 20.28125 -24.269531 18.976562 -24.851562 17.59375 -25.25 C 16.21875 -25.65625 14.863281 -25.859375 13.53125 -25.859375 C 11.175781 -25.859375 9.410156 -25.429688 8.234375 -24.578125 C 7.054688 -23.722656 6.46875 -22.613281 6.46875 -21.25 C 6.46875 -20.257812 6.800781 -19.453125 7.46875 -18.828125 C 8.132812 -18.203125 8.957031 -17.71875 9.9375 -17.375 C 10.925781 -17.03125 12.265625 -16.664062 13.953125 -16.28125 C 16.140625 -15.75 17.894531 -15.21875 19.21875 -14.6875 C 20.550781 -14.164062 21.691406 -13.363281 22.640625 -12.28125 C 23.597656 -11.207031 24.078125 -9.753906 24.078125 -7.921875 C 24.078125 -6.398438 23.660156 -5.007812 22.828125 -3.75 C 22.003906 -2.5 20.742188 -1.503906 19.046875 -0.765625 C 17.359375 -0.0351562 15.285156 0.328125 12.828125 0.328125 Z M 12.828125 0.328125 "/></g></g></g><g fill="#788b9b" fill-opacity="1"><g transform="translate(624.44899, 254.598017)"><g><path d="M 16.40625 0.328125 C 12.53125 0.328125 9.507812 -0.773438 7.34375 -2.984375 C 5.1875 -5.203125 4.109375 -8.382812 4.109375 -12.53125 L 4.109375 -29.0625 L 8.265625 -29.0625 L 8.265625 -12.703125 C 8.265625 -6.472656 10.988281 -3.359375 16.4375 -3.359375 C 19.09375 -3.359375 21.125 -4.125 22.53125 -5.65625 C 23.945312 -7.195312 24.65625 -9.546875 24.65625 -12.703125 L 24.65625 -29.0625 L 28.6875 -29.0625 L 28.6875 -12.53125 C 28.6875 -8.351562 27.601562 -5.164062 25.4375 -2.96875 C 23.28125 -0.769531 20.269531 0.328125 16.40625 0.328125 Z M 16.40625 0.328125 "/></g></g></g><g fill="#788b9b" fill-opacity="1"><g transform="translate(657.702281, 254.598017)"><g><path d="M 23.78125 0 L 17.515625 -8.921875 C 16.742188 -8.867188 16.132812 -8.84375 15.6875 -8.84375 L 8.515625 -8.84375 L 8.515625 0 L 4.359375 0 L 4.359375 -29.0625 L 15.6875 -29.0625 C 19.457031 -29.0625 22.421875 -28.160156 24.578125 -26.359375 C 26.734375 -24.554688 27.8125 -22.082031 27.8125 -18.9375 C 27.8125 -16.6875 27.257812 -14.769531 26.15625 -13.1875 C 25.050781 -11.613281 23.472656 -10.46875 21.421875 -9.75 L 28.3125 0 Z M 15.5625 -12.375 C 18.195312 -12.375 20.203125 -12.941406 21.578125 -14.078125 C 22.960938 -15.210938 23.65625 -16.832031 23.65625 -18.9375 C 23.65625 -21.039062 22.960938 -22.648438 21.578125 -23.765625 C 20.203125 -24.890625 18.195312 -25.453125 15.5625 -25.453125 L 8.515625 -25.453125 L 8.515625 -12.375 Z M 15.5625 -12.375 "/></g></g></g><g fill="#788b9b" fill-opacity="1"><g transform="translate(688.29864, 254.598017)"><g><path d="M 24.5 -14.703125 L 28.484375 -14.703125 L 28.484375 -3.359375 C 27.046875 -2.171875 25.367188 -1.257812 23.453125 -0.625 C 21.546875 0.0078125 19.554688 0.328125 17.484375 0.328125 C 14.546875 0.328125 11.898438 -0.3125 9.546875 -1.59375 C 7.191406 -2.882812 5.34375 -4.65625 4 -6.90625 C 2.664062 -9.164062 2 -11.707031 2 -14.53125 C 2 -17.351562 2.664062 -19.898438 4 -22.171875 C 5.34375 -24.441406 7.195312 -26.210938 9.5625 -27.484375 C 11.9375 -28.753906 14.601562 -29.390625 17.5625 -29.390625 C 19.882812 -29.390625 21.992188 -29.007812 23.890625 -28.25 C 25.785156 -27.488281 27.398438 -26.375 28.734375 -24.90625 L 26.15625 -22.328125 C 23.832031 -24.578125 21.023438 -25.703125 17.734375 -25.703125 C 15.515625 -25.703125 13.523438 -25.222656 11.765625 -24.265625 C 10.015625 -23.304688 8.640625 -21.976562 7.640625 -20.28125 C 6.640625 -18.582031 6.140625 -16.664062 6.140625 -14.53125 C 6.140625 -12.425781 6.640625 -10.519531 7.640625 -8.8125 C 8.640625 -7.113281 10.015625 -5.78125 11.765625 -4.8125 C 13.523438 -3.84375 15.5 -3.359375 17.6875 -3.359375 C 20.289062 -3.359375 22.5625 -3.984375 24.5 -5.234375 Z M 24.5 -14.703125 "/></g></g></g><g fill="#788b9b" fill-opacity="1"><g transform="translate(720.76314, 254.598017)"><g><path d="M 4.359375 -29.0625 L 8.515625 -29.0625 L 8.515625 0 L 4.359375 0 Z M 4.359375 -29.0625 "/></g></g></g><g fill="#788b9b" fill-opacity="1"><g transform="translate(734.047896, 254.598017)"><g><path d="M 17.359375 0.328125 C 14.453125 0.328125 11.828125 -0.3125 9.484375 -1.59375 C 7.148438 -2.882812 5.316406 -4.65625 3.984375 -6.90625 C 2.660156 -9.164062 2 -11.707031 2 -14.53125 C 2 -17.351562 2.660156 -19.890625 3.984375 -22.140625 C 5.316406 -24.398438 7.15625 -26.171875 9.5 -27.453125 C 11.851562 -28.742188 14.484375 -29.390625 17.390625 -29.390625 C 19.660156 -29.390625 21.738281 -29.007812 23.625 -28.25 C 25.507812 -27.488281 27.113281 -26.363281 28.4375 -24.875 L 25.734375 -22.25 C 23.546875 -24.550781 20.820312 -25.703125 17.5625 -25.703125 C 15.40625 -25.703125 13.453125 -25.21875 11.703125 -24.25 C 9.960938 -23.28125 8.597656 -21.941406 7.609375 -20.234375 C 6.628906 -18.535156 6.140625 -16.632812 6.140625 -14.53125 C 6.140625 -12.425781 6.628906 -10.519531 7.609375 -8.8125 C 8.597656 -7.113281 9.960938 -5.78125 11.703125 -4.8125 C 13.453125 -3.84375 15.40625 -3.359375 17.5625 -3.359375 C 20.800781 -3.359375 23.523438 -4.519531 25.734375 -6.84375 L 28.4375 -4.234375 C 27.113281 -2.742188 25.5 -1.609375 23.59375 -0.828125 C 21.695312 -0.0546875 19.617188 0.328125 17.359375 0.328125 Z M 17.359375 0.328125 "/></g></g></g><g fill="#788b9b" fill-opacity="1"><g transform="translate(764.478197, 254.598017)"><g><path d="M 22.875 -7.265625 L 7.4375 -7.265625 L 4.234375 0 L -0.046875 0 L 13.125 -29.0625 L 17.234375 -29.0625 L 30.4375 0 L 26.078125 0 Z M 21.421875 -10.59375 L 15.15625 -24.828125 L 8.890625 -10.59375 Z M 21.421875 -10.59375 "/></g></g></g><g fill="#788b9b" fill-opacity="1"><g transform="translate(795.282104, 254.598017)"><g><path d="M 4.359375 -29.0625 L 8.515625 -29.0625 L 8.515625 -3.609375 L 24.25 -3.609375 L 24.25 0 L 4.359375 0 Z M 4.359375 -29.0625 "/></g></g></g><g fill="#788b9b" fill-opacity="1"><g transform="translate(820.357017, 254.598017)"><g/></g></g><g fill="#788b9b" fill-opacity="1"><g transform="translate(831.939686, 254.598017)"><g><path d="M 12.828125 0.328125 C 10.640625 0.328125 8.53125 -0.0078125 6.5 -0.6875 C 4.46875 -1.363281 2.867188 -2.242188 1.703125 -3.328125 L 3.234375 -6.5625 C 4.347656 -5.5625 5.769531 -4.75 7.5 -4.125 C 9.226562 -3.507812 11.003906 -3.203125 12.828125 -3.203125 C 15.234375 -3.203125 17.03125 -3.609375 18.21875 -4.421875 C 19.414062 -5.234375 20.015625 -6.320312 20.015625 -7.6875 C 20.015625 -8.675781 19.6875 -9.484375 19.03125 -10.109375 C 18.382812 -10.734375 17.582031 -11.210938 16.625 -11.546875 C 15.664062 -11.878906 14.316406 -12.25 12.578125 -12.65625 C 10.390625 -13.1875 8.625 -13.710938 7.28125 -14.234375 C 5.9375 -14.765625 4.785156 -15.578125 3.828125 -16.671875 C 2.878906 -17.765625 2.40625 -19.238281 2.40625 -21.09375 C 2.40625 -22.644531 2.8125 -24.039062 3.625 -25.28125 C 4.445312 -26.53125 5.6875 -27.523438 7.34375 -28.265625 C 9.007812 -29.015625 11.070312 -29.390625 13.53125 -29.390625 C 15.25 -29.390625 16.9375 -29.164062 18.59375 -28.71875 C 20.257812 -28.28125 21.6875 -27.644531 22.875 -26.8125 L 21.5 -23.5 C 20.28125 -24.269531 18.976562 -24.851562 17.59375 -25.25 C 16.21875 -25.65625 14.863281 -25.859375 13.53125 -25.859375 C 11.175781 -25.859375 9.410156 -25.429688 8.234375 -24.578125 C 7.054688 -23.722656 6.46875 -22.613281 6.46875 -21.25 C 6.46875 -20.257812 6.800781 -19.453125 7.46875 -18.828125 C 8.132812 -18.203125 8.957031 -17.71875 9.9375 -17.375 C 10.925781 -17.03125 12.265625 -16.664062 13.953125 -16.28125 C 16.140625 -15.75 17.894531 -15.21875 19.21875 -14.6875 C 20.550781 -14.164062 21.691406 -13.363281 22.640625 -12.28125 C 23.597656 -11.207031 24.078125 -9.753906 24.078125 -7.921875 C 24.078125 -6.398438 23.660156 -5.007812 22.828125 -3.75 C 22.003906 -2.5 20.742188 -1.503906 19.046875 -0.765625 C 17.359375 -0.0351562 15.285156 0.328125 12.828125 0.328125 Z M 12.828125 0.328125 "/></g></g></g><g fill="#788b9b" fill-opacity="1"><g transform="translate(858.135474, 254.598017)"><g><path d="M 16.40625 0.328125 C 12.53125 0.328125 9.507812 -0.773438 7.34375 -2.984375 C 5.1875 -5.203125 4.109375 -8.382812 4.109375 -12.53125 L 4.109375 -29.0625 L 8.265625 -29.0625 L 8.265625 -12.703125 C 8.265625 -6.472656 10.988281 -3.359375 16.4375 -3.359375 C 19.09375 -3.359375 21.125 -4.125 22.53125 -5.65625 C 23.945312 -7.195312 24.65625 -9.546875 24.65625 -12.703125 L 24.65625 -29.0625 L 28.6875 -29.0625 L 28.6875 -12.53125 C 28.6875 -8.351562 27.601562 -5.164062 25.4375 -2.96875 C 23.28125 -0.769531 20.269531 0.328125 16.40625 0.328125 Z M 16.40625 0.328125 "/></g></g></g><g fill="#788b9b" fill-opacity="1"><g transform="translate(891.388765, 254.598017)"><g><path d="M 15.6875 -29.0625 C 19.457031 -29.0625 22.421875 -28.160156 24.578125 -26.359375 C 26.734375 -24.554688 27.8125 -22.082031 27.8125 -18.9375 C 27.8125 -15.78125 26.734375 -13.300781 24.578125 -11.5 C 22.421875 -9.695312 19.457031 -8.796875 15.6875 -8.796875 L 8.515625 -8.796875 L 8.515625 0 L 4.359375 0 L 4.359375 -29.0625 Z M 15.5625 -12.40625 C 18.195312 -12.40625 20.203125 -12.96875 21.578125 -14.09375 C 22.960938 -15.21875 23.65625 -16.832031 23.65625 -18.9375 C 23.65625 -21.039062 22.960938 -22.648438 21.578125 -23.765625 C 20.203125 -24.890625 18.195312 -25.453125 15.5625 -25.453125 L 8.515625 -25.453125 L 8.515625 -12.40625 Z M 15.5625 -12.40625 "/></g></g></g><g fill="#788b9b" fill-opacity="1"><g transform="translate(921.777545, 254.598017)"><g><path d="M 15.6875 -29.0625 C 19.457031 -29.0625 22.421875 -28.160156 24.578125 -26.359375 C 26.734375 -24.554688 27.8125 -22.082031 27.8125 -18.9375 C 27.8125 -15.78125 26.734375 -13.300781 24.578125 -11.5 C 22.421875 -9.695312 19.457031 -8.796875 15.6875 -8.796875 L 8.515625 -8.796875 L 8.515625 0 L 4.359375 0 L 4.359375 -29.0625 Z M 15.5625 -12.40625 C 18.195312 -12.40625 20.203125 -12.96875 21.578125 -14.09375 C 22.960938 -15.21875 23.65625 -16.832031 23.65625 -18.9375 C 23.65625 -21.039062 22.960938 -22.648438 21.578125 -23.765625 C 20.203125 -24.890625 18.195312 -25.453125 15.5625 -25.453125 L 8.515625 -25.453125 L 8.515625 -12.40625 Z M 15.5625 -12.40625 "/></g></g></g><g fill="#788b9b" fill-opacity="1"><g transform="translate(952.166325, 254.598017)"><g><path d="M 4.359375 -29.0625 L 8.515625 -29.0625 L 8.515625 -3.609375 L 24.25 -3.609375 L 24.25 0 L 4.359375 0 Z M 4.359375 -29.0625 "/></g></g></g><g fill="#788b9b" fill-opacity="1"><g transform="translate(977.241239, 254.598017)"><g><path d="M 4.359375 -29.0625 L 8.515625 -29.0625 L 8.515625 0 L 4.359375 0 Z M 4.359375 -29.0625 "/></g></g></g><g fill="#788b9b" fill-opacity="1"><g transform="translate(990.525994, 254.598017)"><g><path d="M 25.453125 -3.609375 L 25.453125 0 L 4.359375 0 L 4.359375 -29.0625 L 24.875 -29.0625 L 24.875 -25.453125 L 8.515625 -25.453125 L 8.515625 -16.515625 L 23.078125 -16.515625 L 23.078125 -13 L 8.515625 -13 L 8.515625 -3.609375 Z M 25.453125 -3.609375 "/></g></g></g><g fill="#788b9b" fill-opacity="1"><g transform="translate(1018.75601, 254.598017)"><g><path d="M 12.828125 0.328125 C 10.640625 0.328125 8.53125 -0.0078125 6.5 -0.6875 C 4.46875 -1.363281 2.867188 -2.242188 1.703125 -3.328125 L 3.234375 -6.5625 C 4.347656 -5.5625 5.769531 -4.75 7.5 -4.125 C 9.226562 -3.507812 11.003906 -3.203125 12.828125 -3.203125 C 15.234375 -3.203125 17.03125 -3.609375 18.21875 -4.421875 C 19.414062 -5.234375 20.015625 -6.320312 20.015625 -7.6875 C 20.015625 -8.675781 19.6875 -9.484375 19.03125 -10.109375 C 18.382812 -10.734375 17.582031 -11.210938 16.625 -11.546875 C 15.664062 -11.878906 14.316406 -12.25 12.578125 -12.65625 C 10.390625 -13.1875 8.625 -13.710938 7.28125 -14.234375 C 5.9375 -14.765625 4.785156 -15.578125 3.828125 -16.671875 C 2.878906 -17.765625 2.40625 -19.238281 2.40625 -21.09375 C 2.40625 -22.644531 2.8125 -24.039062 3.625 -25.28125 C 4.445312 -26.53125 5.6875 -27.523438 7.34375 -28.265625 C 9.007812 -29.015625 11.070312 -29.390625 13.53125 -29.390625 C 15.25 -29.390625 16.9375 -29.164062 18.59375 -28.71875 C 20.257812 -28.28125 21.6875 -27.644531 22.875 -26.8125 L 21.5 -23.5 C 20.28125 -24.269531 18.976562 -24.851562 17.59375 -25.25 C 16.21875 -25.65625 14.863281 -25.859375 13.53125 -25.859375 C 11.175781 -25.859375 9.410156 -25.429688 8.234375 -24.578125 C 7.054688 -23.722656 6.46875 -22.613281 6.46875 -21.25 C 6.46875 -20.257812 6.800781 -19.453125 7.46875 -18.828125 C 8.132812 -18.203125 8.957031 -17.71875 9.9375 -17.375 C 10.925781 -17.03125 12.265625 -16.664062 13.953125 -16.28125 C 16.140625 -15.75 17.894531 -15.21875 19.21875 -14.6875 C 20.550781 -14.164062 21.691406 -13.363281 22.640625 -12.28125 C 23.597656 -11.207031 24.078125 -9.753906 24.078125 -7.921875 C 24.078125 -6.398438 23.660156 -5.007812 22.828125 -3.75 C 22.003906 -2.5 20.742188 -1.503906 19.046875 -0.765625 C 17.359375 -0.0351562 15.285156 0.328125 12.828125 0.328125 Z M 12.828125 0.328125 "/></g></g></g><g clip-path="url(#18964df9ea)"><path fill="#144e8b" d="M 265.246094 18.808594 L 249.4375 18.808594 C 246.378906 18.808594 243.871094 21.132812 243.871094 23.976562 L 243.871094 60.640625 L 206.546875 60.640625 C 203.707031 60.640625 201.382812 63.144531 201.382812 66.207031 L 201.382812 98.777344 C 201.382812 101.839844 203.707031 104.34375 206.546875 104.34375 L 243.871094 104.34375 L 243.871094 142.328125 C 243.871094 145.167969 246.378906 147.492188 249.4375 147.492188 L 265.246094 147.492188 C 265.246094 147.492188 272.066406 101.140625 272.128906 85.566406 C 272.195312 68.789062 265.246094 18.808594 265.246094 18.808594 Z M 265.246094 18.808594 " fill-opacity="1" fill-rule="nonzero"/></g><g clip-path="url(#cddbc7418a)"><path fill="#144e8b" d="M 324.914062 60.640625 L 287.589844 60.640625 L 287.589844 23.976562 C 287.589844 21.132812 285.082031 18.808594 282.023438 18.808594 L 265.246094 18.808594 L 265.246094 147.492188 L 282.023438 147.492188 C 285.082031 147.492188 287.589844 145.167969 287.589844 142.328125 L 287.589844 104.355469 L 324.914062 104.355469 C 327.753906 104.355469 330.078125 101.851562 330.078125 98.789062 L 330.078125 66.207031 C 330.078125 63.144531 327.753906 60.640625 324.914062 60.640625 Z M 324.914062 60.640625 " fill-opacity="1" fill-rule="nonzero"/></g><path fill="#144e8b" d="M 234.804688 95.601562 L 211.558594 95.601562 C 209.867188 95.601562 208.484375 94.21875 208.484375 92.527344 C 208.484375 90.835938 209.867188 89.453125 211.558594 89.453125 L 234.804688 89.453125 C 236.496094 89.453125 237.878906 90.835938 237.878906 92.527344 C 237.878906 94.21875 236.511719 95.601562 234.804688 95.601562 Z M 234.804688 95.601562 " fill-opacity="1" fill-rule="nonzero"/><path fill="#144e8b" d="M 245.550781 92.527344 C 245.550781 92.921875 245.476562 93.300781 245.324219 93.664062 C 245.175781 94.027344 244.960938 94.347656 244.679688 94.628906 C 244.402344 94.90625 244.082031 95.121094 243.71875 95.273438 C 243.355469 95.421875 242.976562 95.496094 242.582031 95.496094 C 242.1875 95.496094 241.808594 95.421875 241.445312 95.273438 C 241.078125 95.121094 240.757812 94.90625 240.480469 94.628906 C 240.203125 94.347656 239.988281 94.027344 239.835938 93.664062 C 239.6875 93.300781 239.609375 92.921875 239.609375 92.527344 C 239.609375 92.132812 239.6875 91.753906 239.835938 91.390625 C 239.988281 91.027344 240.203125 90.707031 240.480469 90.425781 C 240.757812 90.148438 241.078125 89.933594 241.445312 89.78125 C 241.808594 89.632812 242.1875 89.558594 242.582031 89.558594 C 242.976562 89.558594 243.355469 89.632812 243.71875 89.78125 C 244.082031 89.933594 244.402344 90.148438 244.679688 90.425781 C 244.960938 90.707031 245.175781 91.027344 245.324219 91.390625 C 245.476562 91.753906 245.550781 92.132812 245.550781 92.527344 Z M 245.550781 92.527344 " fill-opacity="1" fill-rule="nonzero"/></svg>